<svg viewBox="0 0 512 512" xmlns="http://www.w3.org/2000/svg"><path d="M215.828 64.266c-83.57 0-151.562 67.992-151.562 151.566s67.992 151.566 151.566 151.566 151.566-67.992 151.566-151.566-67.992-151.566-151.57-151.566zm.004 273.136c-67.031 0-121.566-54.535-121.566-121.566 0-67.035 54.535-121.57 121.562-121.57 67.035 0 121.57 54.535 121.57 121.566s-54.535 121.57-121.566 121.57zm0 0"/><path d="M495.844 417.824l-93.399-93.394c19.051-32.617 29.22-69.82 29.22-108.594 0-57.652-22.45-111.856-63.216-152.617C327.684 22.449 273.48 0 215.83 0 158.178 0 103.98 22.45 63.214 63.215S0 158.184 0 215.832c0 57.652 22.45 111.852 63.215 152.617s94.965 63.215 152.613 63.215c38.777 0 75.984-10.168 108.598-29.223l93.398 93.403c10.754 10.754 24.883 16.129 39.008 16.129 14.129 0 28.254-5.375 39.012-16.13C506.262 485.423 512 471.57 512 456.833c0-14.734-5.738-28.586-16.156-39.008zM30 215.832C30 113.363 113.363 30 215.828 30c102.473 0 185.836 83.363 185.836 185.832s-83.363 185.832-185.836 185.832C113.363 401.664 30 318.301 30 215.832zm444.629 258.797c-9.813 9.812-25.781 9.812-35.594 0l-89.41-89.414a219.757 219.757 0 0 0 18.824-16.766 219.167 219.167 0 0 0 16.766-18.824l89.414 89.414c4.754 4.754 7.371 11.07 7.371 17.793 0 6.723-2.617 13.043-7.371 17.797zm0 0"/><path d="M215.832 187.492c-45.46 0-82.445 36.985-82.445 82.446a41.1 41.1 0 0 0 6.718 22.554c7.653 11.692 20.555 18.676 34.508 18.676 10.14 0 17.965-2.32 24.871-4.367 5.668-1.68 10.563-3.13 16.348-3.13 5.79 0 10.68 1.45 16.348 3.13 6.902 2.047 14.73 4.367 24.867 4.367 13.96 0 26.863-6.984 34.52-18.684a41.094 41.094 0 0 0 6.71-22.546c0-45.461-36.984-82.446-82.445-82.446zm50.629 88.57a11.229 11.229 0 0 1-9.414 5.102c-5.785 0-10.68-1.45-16.344-3.129-6.906-2.043-14.73-4.363-24.871-4.363-10.137 0-17.965 2.32-24.867 4.363-5.668 1.68-10.563 3.13-16.352 3.13a11.209 11.209 0 0 1-9.402-5.099 11.164 11.164 0 0 1-1.824-6.128c0-28.922 23.527-52.45 52.445-52.45 28.922 0 52.445 23.528 52.445 52.45 0 2.183-.629 4.304-1.816 6.125zm0 0M148.89 173.71a15.07 15.07 0 0 0 10.598-4.401 15.07 15.07 0 0 0 4.403-10.598c0-3.95-1.602-7.82-4.403-10.61a15.091 15.091 0 0 0-10.597-4.39c-3.95 0-7.82 1.598-10.61 4.39-2.793 2.79-4.39 6.66-4.39 10.61 0 3.937 1.597 7.809 4.39 10.598 2.79 2.8 6.66 4.402 10.61 4.402zm0 0M192.621 150.5c3.95 0 7.82-1.602 10.61-4.39 2.789-2.801 4.39-6.66 4.39-10.61s-1.601-7.809-4.39-10.61a15.114 15.114 0 0 0-10.61-4.39 15.117 15.117 0 0 0-10.601 4.39c-2.79 2.801-4.399 6.66-4.399 10.61s1.61 7.809 4.399 10.61a15.11 15.11 0 0 0 10.601 4.39zm0 0M239.04 150.5c3.948 0 7.812-1.602 10.608-4.39 2.793-2.801 4.391-6.66 4.391-10.61s-1.598-7.809-4.39-10.61a15.128 15.128 0 0 0-10.61-4.39c-3.95 0-7.82 1.602-10.61 4.39-2.788 2.801-4.39 6.66-4.39 10.61s1.602 7.809 4.39 10.61c2.801 2.788 6.66 4.39 10.61 4.39zm0 0M282.781 173.71a15.07 15.07 0 0 0 10.598-4.401c2.793-2.79 4.402-6.66 4.402-10.598 0-3.95-1.61-7.82-4.402-10.61a15.07 15.07 0 0 0-10.598-4.39 15.09 15.09 0 0 0-10.61 4.39c-2.792 2.79-4.39 6.66-4.39 10.61 0 3.937 1.598 7.809 4.39 10.598a15.069 15.069 0 0 0 10.61 4.402zm0 0"/></svg>