<svg xmlns="http://www.w3.org/2000/svg" viewBox="0 0 25.404 25.404"><path d="M11.313,7.422l-0.109-0.096c0.535-1.92,0.048-4.066-1.461-5.576c-1.5-1.496-3.62-1.986-5.529-1.469l3.232,3.232L6.598,6.68
		L3.431,7.527l-3.234-3.23c-0.514,1.908-0.025,4.029,1.475,5.529c1.571,1.572,3.835,2.033,5.814,1.389l0.018,0.018l13.3,13.299
		c0.526,0.525,1.214,0.791,1.904,0.791s1.377-0.266,1.906-0.791c1.053-1.049,1.053-2.754,0-3.811L11.313,7.422z M22.94,24.08
		c-0.566,0-1.027-0.461-1.027-1.029c0-0.57,0.461-1.029,1.027-1.029c0.57,0,1.03,0.459,1.03,1.029
		C23.971,23.619,23.511,24.08,22.94,24.08z"/></svg>
